HIERARCHY
ROOT Hips
{
	OFFSET 0.000000 0.000000 0.000000
	CHANNELS 6 Xposition Yposition Zposition Zrotation Yrotation Xrotation 
	JOINT LHipJoint
	{
		OFFSET 0.000000 0.000000 0.000000
		CHANNELS 3 Zrotation Yrotation Xrotation
		JOINT LeftUpLeg
		{
			OFFSET 1.363060 -1.794630 0.839290
			CHANNELS 3 Zrotation Yrotation Xrotation
			JOINT LeftLeg
			{
				OFFSET 2.448110 -6.726130 0.000000
				CHANNELS 3 Zrotation Yrotation Xrotation
				JOINT LeftFoot
				{
					OFFSET 2.562200 -7.039590 0.000000
					CHANNELS 3 Zrotation Yrotation Xrotation
					JOINT LeftToeBase
					{
						OFFSET 0.157640 -0.433110 2.322550
						CHANNELS 3 Zrotation Yrotation Xrotation
						End Site
						{
							OFFSET 0.000000 0.000000 0.000000
						}
					}
				}
			}
		}
	}
	JOINT RHipJoint
	{
		OFFSET 0.000000 0.000000 0.000000
		CHANNELS 3 Zrotation Yrotation Xrotation
		JOINT RightUpLeg
		{
			OFFSET -1.305520 -1.794630 0.839290
			CHANNELS 3 Zrotation Yrotation Xrotation
			JOINT RightLeg
			{
				OFFSET -2.542530 -6.985550 0.000000
				CHANNELS 3 Zrotation Yrotation Xrotation
				JOINT RightFoot
				{
					OFFSET -2.568260 -7.056230 0.000000
					CHANNELS 3 Zrotation Yrotation Xrotation
					JOINT RightToeBase
					{
						OFFSET -0.164730 -0.452590 2.363150
						CHANNELS 3 Zrotation Yrotation Xrotation
						End Site
						{
							OFFSET 0.000000 0.000000 0.000000
						}
					}
				}
			}
		}
	}
	JOINT LowerBack
	{
		OFFSET 0.000000 0.000000 0.000000
		CHANNELS 3 Zrotation Yrotation Xrotation
		JOINT Spine
		{
			OFFSET 0.028270 2.035590 -0.193380
			CHANNELS 3 Zrotation Yrotation Xrotation
			JOINT Spine1
			{
				OFFSET 0.056720 2.048850 -0.042750
				CHANNELS 3 Zrotation Yrotation Xrotation
				JOINT Neck
				{
					OFFSET 0.000000 0.000000 0.000000
					CHANNELS 3 Zrotation Yrotation Xrotation
					JOINT Neck1
					{
						OFFSET -0.054170 1.746240 0.172020
						CHANNELS 3 Zrotation Yrotation Xrotation
						JOINT Head
						{
							OFFSET 0.104070 1.761360 -0.123970
							CHANNELS 3 Zrotation Yrotation Xrotation
							End Site
							{
								OFFSET 0.000000 0.000000 0.000000
							}
						}
					}
				}
				JOINT LeftShoulder
				{
					OFFSET 0.000000 0.000000 0.000000
					CHANNELS 3 Zrotation Yrotation Xrotation
					JOINT LeftArm
					{
						OFFSET 3.362410 1.200890 -0.311210
						CHANNELS 3 Zrotation Yrotation Xrotation
						JOINT LeftForeArm
						{
							OFFSET 4.983000 -0.000000 -0.000000
							CHANNELS 3 Zrotation Yrotation Xrotation
							JOINT LeftHand
							{
								OFFSET 3.483560 -0.000000 -0.000000
								CHANNELS 3 Zrotation Yrotation Xrotation
								JOINT LeftFingerBase
								{
									OFFSET 0.000000 0.000000 0.000000
									CHANNELS 3 Zrotation Yrotation Xrotation
									JOINT LeftHandIndex1
									{
										OFFSET 0.715260 -0.000000 -0.000000
										CHANNELS 3 Zrotation Yrotation Xrotation
										End Site
										{
											OFFSET 0.000000 0.000000 0.000000
										}
									}
								}
								JOINT LThumb
								{
									OFFSET 0.000000 0.000000 0.000000
									CHANNELS 3 Zrotation Yrotation Xrotation
									End Site
									{
										OFFSET 0.000000 0.000000 0.000000
									}
								}
							}
						}
					}
				}
				JOINT RightShoulder
				{
					OFFSET 0.000000 0.000000 0.000000
					CHANNELS 3 Zrotation Yrotation Xrotation
					JOINT RightArm
					{
						OFFSET -3.136600 1.374050 -0.404650
						CHANNELS 3 Zrotation Yrotation Xrotation
						JOINT RightForeArm
						{
							OFFSET -5.241900 -0.000000 -0.000000
							CHANNELS 3 Zrotation Yrotation Xrotation
							JOINT RightHand
							{
								OFFSET -3.444170 -0.000000 -0.000000
								CHANNELS 3 Zrotation Yrotation Xrotation
								JOINT RightFingerBase
								{
									OFFSET 0.000000 0.000000 0.000000
									CHANNELS 3 Zrotation Yrotation Xrotation
									JOINT RightHandIndex1
									{
										OFFSET -0.622530 -0.000000 -0.000000
										CHANNELS 3 Zrotation Yrotation Xrotation
										End Site
										{
											OFFSET 0.000000 0.000000 0.000000
										}
									}
								}
								JOINT RThumb
								{
									OFFSET 0.000000 0.000000 0.000000
									CHANNELS 3 Zrotation Yrotation Xrotation
									End Site
									{
										OFFSET 0.000000 0.000000 0.000000
									}
								}
							}
						}
					}
				}
			}
		}
	}
}
MOTION
Frames: 6
Frame Time: 0.008333
9.387336 17.517992 -3.481117 -6.128865 -10.826633 13.212110 1.539367 -3.216022 -6.213662 -5.417162 -0.360963 -42.084969 -2.583195 9.631768 18.202183 -1.734486 11.550074 16.036642 1.328300 -7.298500 -20.602700 -0.102383 -3.289966 4.911155 20.617441 4.722482 16.223009 3.539057 0.936600 2.544845 -0.059186 -2.831423 15.288619 -2.400700 9.655100 -27.866900 2.313458 7.841040 -3.802658 0.462046 9.085795 -4.711776 5.597172 5.630139 7.772407 -11.721055 -6.436455 -16.088278 5.783648 -5.918061 4.637738 6.269600 -2.872000 8.459400 -0.958941 -5.049450 -1.144331 -76.356896 35.615444 -4.903703 0.798642 -9.081873 -0.197893 -0.300884 2.604504 30.354841 14.859834 -28.136952 -8.403900 -7.125000 0.000000 0.000000 -8.431400 -0.837000 8.647400 -0.146550 8.605697 2.156811 56.034482 31.351983 55.344260 -30.319061 31.586717 -11.708775 3.141756 1.809837 -23.020544 -31.735518 -15.822978 10.862100 7.125000 0.000000 0.000000 -7.530000 -48.855600 0.719800 
9.426085 17.468704 -3.147956 -6.800170 -10.521646 13.156270 1.745144 -3.160180 -6.286770 -5.219585 -0.315426 -42.468463 -2.219632 10.348381 19.828234 -1.545440 12.100451 19.404050 1.467300 -7.655100 -21.671200 -0.259811 -3.364422 4.933130 21.201403 4.292655 17.238127 3.512329 0.943543 2.519889 0.076685 -3.577457 16.624244 -2.329700 9.521500 -27.440600 3.298380 7.990646 -3.833205 0.471055 9.192157 -4.690914 5.303664 5.726113 7.991291 -11.804530 -6.624957 -16.149907 5.786006 -6.156075 4.537722 6.348100 -2.970100 8.435400 -1.016656 -4.974871 -1.106321 -75.938190 35.653215 -8.867011 0.595046 -8.512717 -0.135231 -0.144208 2.708896 33.896019 14.970161 -28.565393 -8.614800 -7.125000 0.000000 0.000000 -8.387400 -1.356500 8.676300 -0.146747 8.558268 2.170480 55.639417 31.516111 55.023413 -30.307309 31.589868 -11.719308 3.162907 1.792831 -23.339775 -31.983307 -15.534339 10.743200 7.125000 0.000000 0.000000 -7.799300 -48.507100 0.678500 
9.468019 17.435003 -2.830932 -6.582260 -10.415388 13.231192 1.905440 -3.107612 -6.322503 -5.721761 -0.361520 -43.211435 -1.903048 11.108146 21.613340 -1.213742 12.119726 22.001909 1.262500 -7.122400 -20.078400 -0.353537 -3.483176 5.012652 20.694904 3.989808 17.748104 3.477299 0.917105 2.517382 0.280893 -4.811471 18.290679 -2.192800 9.256500 -26.601200 3.184601 8.086006 -4.010247 0.422589 9.318194 -4.698236 5.107603 5.805956 8.133862 -11.664005 -6.817119 -16.531284 5.653498 -6.424191 4.565260 6.199000 -3.095700 8.604000 -1.060301 -4.955271 -1.095628 -75.430787 35.486159 -12.526793 0.360298 -7.870063 -0.096565 0.044542 2.700383 37.058684 14.073320 -28.170368 -8.023900 -7.125000 0.000000 0.000000 -8.888400 -0.833500 9.126700 -0.135296 8.540147 2.140546 55.292652 31.669433 54.770282 -30.303667 31.550086 -11.705281 3.165089 1.761736 -23.539188 -31.946166 -15.182789 10.470300 7.125000 0.000000 0.000000 -7.756600 -48.045000 0.586000 
9.466153 17.373750 -2.512591 -6.342253 -9.709763 13.490320 2.092924 -3.061173 -6.303665 -6.205218 -0.797629 -44.175511 -1.573235 11.937386 23.634427 -0.876796 11.487514 23.035928 1.141000 -6.783300 -19.075000 -0.442664 -3.573139 5.092348 20.361473 3.078808 18.022683 3.418047 0.865746 2.523810 0.572832 -6.496872 20.010341 -2.135300 9.142400 -26.241700 2.617425 7.901642 -4.569368 0.423598 9.083836 -4.785251 5.208775 5.700657 7.909120 -11.456709 -6.896861 -16.550390 5.612911 -6.593764 4.714256 6.043300 -3.190800 8.762800 -1.063683 -4.957058 -1.128826 -74.841867 35.808772 -15.645687 0.160859 -7.359820 -0.078363 0.171917 2.632981 39.535866 13.082597 -27.272858 -7.268700 -7.125000 0.000000 0.000000 -9.406500 0.250200 9.494400 -0.121333 8.540720 2.085698 55.596363 31.331441 54.889404 -30.334553 31.594283 -11.715627 3.146058 1.717501 -23.426302 -31.910124 -14.924457 10.262400 7.125000 0.000000 0.000000 -7.687600 -47.710900 0.517100 
9.482948 17.320181 -2.191725 -6.116865 -9.847141 13.311134 2.223356 -2.885646 -6.212184 -6.632280 -0.719917 -44.505593 -1.114971 12.692838 25.623187 -1.001621 11.700345 23.200053 0.664000 -5.211300 -14.512100 -0.556243 -3.753618 5.152770 19.859336 2.825401 18.891085 3.364851 0.760752 2.480171 1.001868 -9.058930 22.071040 -1.984400 8.833400 -25.275700 2.248817 7.997128 -4.539527 0.378080 9.261806 -4.808776 5.308347 5.793832 7.552432 -11.817440 -7.031528 -15.877642 5.933664 -6.721899 4.392562 6.400500 -3.223100 8.474700 -1.181050 -4.926028 -1.065103 -74.436433 35.875222 -20.093099 0.054900 -6.832894 -0.058833 0.388812 2.625842 43.631669 12.681902 -27.098517 -7.026200 -7.125000 0.000000 0.000000 -9.635800 0.452300 9.697900 -0.191607 8.582166 2.123494 56.019182 30.748465 54.562429 -30.324722 31.708577 -11.778552 3.145359 1.808471 -23.024848 -31.814378 -15.786316 10.867200 7.125000 0.000000 0.000000 -7.613200 -48.821800 0.721500 
9.497108 17.293067 -1.880738 -5.439135 -9.702539 13.094403 2.212194 -2.822568 -6.089349 -7.561029 -0.673020 -45.010967 -0.659565 13.427502 27.700648 -1.063470 11.634774 23.226640 0.289600 -3.460500 -9.563600 -0.380124 -3.603467 5.109461 19.187930 2.687781 16.764186 2.876531 -1.372564 7.777151 1.338800 -10.135241 22.336433 -1.686600 8.180200 -23.262800 1.334731 7.891456 -4.346683 0.340791 9.265130 -4.841538 5.745712 5.775756 6.702065 -13.008734 -7.137079 -13.909202 6.940180 -6.669574 3.274855 7.549300 -3.081900 7.388500 -1.447664 -4.882368 -0.914614 -74.288584 35.958021 -20.524923 -0.079730 -6.517905 -0.042770 0.392119 2.599197 44.152680 12.690699 -26.558095 -6.906100 -7.125000 0.000000 0.000000 -9.586000 1.016700 9.549800 -0.380694 8.742713 2.298659 56.453784 29.896214 54.077369 -30.322550 31.871538 -11.887630 3.151013 1.955594 -22.651128 -31.827296 -17.038290 11.794900 7.125000 0.000000 0.000000 -7.654500 -50.448200 1.033100 
